<?xml version="1.0" encoding="UTF-8"?>
<svg width="600px" height="600px" viewBox="0 0 600 600" version="1.1" xmlns="http://www.w3.org/2000/svg" xmlns:xlink="http://www.w3.org/1999/xlink">
    <title>drivers/camera/assets/icon</title>
    <g id="/drivers/camera/assets/icon" stroke="none" stroke-width="1" fill="none" fill-rule="evenodd">
        <g id="com.google.nest/drivers/display/assets/icon">
            <path d="M194.552799,50.6613023 C223.436333,24.937167 261.871197,10.4919408 302.992471,13.3674204 C330.124108,15.2646493 355.043233,24.4696492 376.049184,38.9787157 C397.497377,53.7932442 414.862377,74.1477012 426.308996,97.9070702 C440.789101,119.814566 448.572629,147.349772 446.519688,176.708188 C444.377228,207.346795 431.902796,234.525878 413.233836,254.466577 C406.399819,264.130743 398.496767,272.925423 389.718938,280.682256 L390.153,280.295 L390.433823,281.175588 C362.679214,303.189484 347.080335,332.041686 343.574175,367.697677 L343.471629,368.780244 C343.333344,370.669235 342.891132,378.039101 342.502652,385.730296 L342.502652,385.730296 L342.415855,387.473378 C342.394597,387.906743 342.373599,388.3399 342.353183,388.766529 L342.353183,388.766529 L342.311408,389.647458 C342.09046,394.350774 341.912358,398.837885 341.871217,401.837291 C341.8578,402.815451 341.85056,403.855025 341.84938,404.95601 L341.84938,404.95601 L341.84992,405.946998 C341.865866,413.513843 342.146583,423.71232 342.686758,436.539115 L342.686758,436.539115 L342.736732,437.718149 L342.736732,479.170772 C342.828637,481.024442 342.807415,483.179226 342.769243,485.543864 C342.671266,491.613117 341.56779,500.478382 347.390941,507.004388 C351.345573,511.436345 358.350466,514.171395 369.27641,515.245279 C374.162051,515.725476 379.426698,516.21128 384.894615,516.715926 C390.198316,517.205417 395.691678,517.712456 401.216995,518.248689 L401.216995,518.248689 L403.92364,518.513566 L403.92364,518.513566 L406.015482,518.721688 C424.490455,520.574609 442.817379,522.816105 455.458764,525.785456 C461.835341,527.283259 466.968602,529.052693 470.467961,530.904162 C473.333707,532.420393 475.449341,534.130919 476.937669,535.792142 C479.934185,539.136755 481.107231,542.736974 481.144502,546.313084 C481.157762,547.58537 481.184285,548.675379 481.206518,549.598253 C481.228172,550.497132 481.245614,551.260391 481.249223,551.898234 C481.240935,553.796313 481.135898,554.881695 481.014436,555.643189 C480.718228,558.409861 480.666093,563.32507 472.068559,568.85208 C469.560228,570.464586 465.690585,572.357363 459.503274,574.088799 C446.928267,577.607748 389.704425,586.096527 314.577882,586.866283 C314.161029,586.870554 313.599346,586.873215 312.927662,586.874337 L312.927662,586.874337 L310.896685,586.874084 C309.262408,586.871711 307.32084,586.864937 305.353238,586.85634 L305.353238,586.85634 L304.132565,586.850799 C301.160416,586.836834 298.267795,586.819969 296.446059,586.809347 C295.709897,586.805055 295.149932,586.801788 294.818084,586.800122 C215.589804,586.568403 154.756817,577.610179 141.746726,573.969478 C135.559415,572.238041 131.689772,570.345264 129.181441,568.732759 C120.255291,562.994495 120.444796,557.862416 120.250535,555.627839 C120.08137,554.572949 120.010428,553.597098 120.001079,552.343737 C120.004659,551.289586 120.025382,550.341273 120.049379,549.284224 C120.070204,548.366924 120.093382,547.356263 120.105498,546.193762 C120.142769,542.617653 121.315815,539.017433 124.312331,535.672821 C125.800659,534.011598 127.916293,532.301072 130.782039,530.78484 C134.281398,528.933371 139.414659,527.163937 145.791236,525.666134 C158.194104,522.752809 176.069987,520.540131 194.18896,518.707666 L196.280392,518.497897 L196.280392,518.497897 L197.32636,518.394244 L200.033005,518.129367 C205.558322,517.593135 211.051684,517.086095 216.355385,516.596604 C221.823302,516.091958 227.087949,515.606155 231.97359,515.125957 C242.857554,514.0562 249.84356,511.292161 253.797589,506.845349 C259.668553,500.242699 258.579038,491.288991 258.480596,485.279339 C258.445443,483.133314 258.423399,481.177742 258.49233,479.487655 L258.49233,479.487655 L258.513402,437.593519 C259.086255,424.212169 259.383651,413.623586 259.40008,405.827676 L259.40008,405.827676 L259.40062,404.836688 C259.39944,403.735703 259.3922,402.69613 259.378783,401.717969 C259.25914,392.995408 258.014273,371.813216 257.792813,368.835775 C255.650993,346.404088 245.426493,324.600029 227.608411,303.070808 C200.905727,290.001694 178.775319,269.079563 163.880436,243.38096 C148.982832,217.677661 141.317735,187.201335 143.564437,155.072003 C146.499183,113.103171 165.78416,76.2831108 194.552799,50.6613023 Z" id="Combined-Shape" stroke="#000000" stroke-width="25" stroke-linejoin="round"></path>
            <path d="M315.631608,21.2614039 C240.435725,16.13392 174.855419,76.4316673 169.153896,155.940192 C165.936952,200.800913 182.469765,242.192419 210.996601,270.669133 C213.469545,273.137732 228.057849,288.672482 231.270006,293.614105 C233.744014,297.420148 237.889208,304.431657 243.705589,314.648632" id="Path" stroke="#000000" stroke-width="12.5" stroke-linecap="round" stroke-linejoin="round"></path>
            <path d="M271.33773,440.644771 C287.246722,441.898106 299.178466,442.524774 307.132962,442.524774 C315.087458,442.524774 322.873918,441.898106 330.492342,440.644771" id="Path" stroke="#000000" stroke-width="12.5" stroke-linecap="round" stroke-linejoin="round"></path>
            <path d="M271.33773,458.144771 C287.246722,459.398106 299.178466,460.024774 307.132962,460.024774 C315.087458,460.024774 322.873918,459.398106 330.492342,458.144771" id="Path" stroke="#000000" stroke-width="12.5" stroke-linecap="round" stroke-linejoin="round"></path>
            <path d="M272.992108,88.4883835 C291.91073,70.3623747 317.012613,60.0819796 343.818051,61.9563985 C370.62349,63.8308173 394.050329,77.5046713 410.262183,98.0872423 C426.493266,118.694227 435.494225,146.225083 433.42666,175.792634 C431.359096,205.360186 418.614179,231.370422 399.673118,249.51793 C380.754496,267.643939 355.652612,277.924334 328.847174,276.049915 C302.041736,274.175496 278.614897,260.501642 262.403043,239.919071 C246.171959,219.312087 237.171001,191.781231 239.238565,162.21368 C241.30613,132.646128 254.051047,106.635892 272.992108,88.4883835 Z" id="Oval" stroke="#004DFF" stroke-width="1.25"></path>
            <path d="M328.907968,276.673393 C382.938131,280.447196 430.112985,235.300861 434.275954,175.836232 C438.438923,116.371603 398.013576,65.1067241 343.983414,61.3329209 C289.953251,57.5591178 242.778397,102.705453 238.615428,162.170082 C234.452458,221.634711 274.877806,272.89959 328.907968,276.673393 Z" id="Oval" stroke="#000000" stroke-width="12.5" stroke-linecap="round" stroke-linejoin="round"></path>
            <path d="M308.614601,61.2343483 L310.233414,61.3329209 L335.166916,61.3308901 C339.301973,61.0418811 343.496617,61.0369967 347.733414,61.3329209 C401.763576,65.1067241 442.188923,116.371603 438.025954,175.836232 C433.904615,234.706215 387.627327,279.542837 334.27678,276.771965 L332.657968,276.673393 L295.157968,276.673393 C241.127806,272.89959 200.702458,221.634711 204.865428,162.170082 C208.986767,103.300099 255.264055,58.4634764 308.614601,61.2343483 Z M295.158587,165.611757 C292.899368,197.858923 315.038627,225.913716 344.95619,228.001796 C374.872873,230.089813 400.707248,205.38465 402.966413,173.138243 C405.225632,140.891077 383.086373,112.836284 353.16881,110.748204 C323.252127,108.660187 297.417752,133.36535 295.158587,165.611757 Z M351.332263,132.572754 C369.451059,133.835841 383.205531,151.244736 381.77241,171.676193 C380.339247,192.108262 364.287245,207.440383 346.167737,206.177246 C328.048941,204.914159 314.294469,187.505264 315.72759,167.073807 C317.160753,146.641738 333.212755,131.309617 351.332263,132.572754 Z M321.311012,167.949999 C320.449251,180.351025 328.817556,191.042038 340.002143,191.829044 C351.186731,192.61605 360.952226,183.201027 361.813988,170.800001 C362.675749,158.398975 354.307444,147.707962 343.122857,146.920956 C331.938269,146.13395 322.172774,155.548973 321.311012,167.949999 Z" id="Combined-Shape" stroke="#000000" stroke-width="12.5" fill="#000000" stroke-linecap="round" stroke-linejoin="round"></path>
            <path d="M335.004736,190.21103 C345.333458,190.932453 354.35168,182.302015 355.147497,170.934407 C355.943315,159.5668 348.215369,149.766706 337.886646,149.045283 C327.557924,148.323861 318.539702,156.954299 317.743884,168.321906 C316.948067,179.689513 324.676013,189.489608 335.004736,190.21103 Z" id="Oval"></path>
            <path d="M466.791516,535.311919 L466.806725,536.431956 L466.836772,537.934518 L465.776955,545.215965 L465.633786,545.388405 C465.533783,545.504604 465.424516,545.623246 465.305076,545.744123 L465.118172,545.927088 C464.890951,546.142444 464.63118,546.364327 464.333988,546.591627 L464.069973,546.787756 C463.523158,547.182564 462.862275,547.592357 462.062768,548.011537 L461.651349,548.221883 C460.663885,548.714396 459.48217,549.218416 458.06721,549.725052 L457.446405,549.942317 C456.811092,550.15969 456.131915,550.37731 455.405806,550.594478 L454.663938,550.811469 C454.537648,550.8476 454.410026,550.883713 454.281057,550.919803 C451.453511,551.711054 446.315519,552.750034 439.186139,553.890083 L437.281337,554.189684 C413.23682,557.910655 368.865444,562.545844 314.793539,563.210735 L312.284989,563.238156 L310.851816,563.243206 L305.958466,563.234557 L292.80022,563.167806 C249.533317,563.042631 211.821672,560.296265 184.776582,557.278173 L181.919942,556.953874 C162.212437,554.677996 148.607551,552.296471 143.261612,550.800481 L142.878731,550.692147 L142.136864,550.475156 C140.684644,550.04082 139.420157,549.604675 138.318848,549.172319 L137.781678,548.956483 C137.345179,548.776925 136.936299,548.598188 136.553261,548.420675 L136.105907,548.208273 C134.510259,547.431813 133.401173,546.682199 132.627343,545.99393 L132.424497,545.807767 C132.392037,545.777002 132.360241,545.74637 132.329095,545.715875 L132.149906,545.534566 C132.121304,545.504629 132.093323,545.474836 132.065949,545.445188 L131.908883,545.269084 C131.883883,545.240034 131.859461,545.211137 131.835604,545.182396 L130.731367,536.577699 L130.747899,535.481647 C130.749052,535.386308 130.750139,535.28996 130.751153,535.192597" id="Path" stroke="#000000" stroke-width="12.5" stroke-linecap="round" stroke-linejoin="round"></path>
        </g>
    </g>
</svg>