<?xml version="1.0" encoding="UTF-8"?>
<svg width="600px" height="600px" viewBox="0 0 600 600" version="1.1" xmlns="http://www.w3.org/2000/svg" xmlns:xlink="http://www.w3.org/1999/xlink">
    <title>assets/icon</title>
    <g id="/assets/icon" stroke="none" stroke-width="1" fill="none" fill-rule="evenodd">
        <g id="icon" transform="translate(6.000000, 0.000000)" fill-rule="nonzero">
            <path d="M587,305.903517 C587,286.10009 585.245431,267.299369 582.237598,249 L299,249 L299,362.055005 L461.172324,362.055005 C453.903394,399.155095 432.597911,430.48963 401.015666,451.797115 L401.015666,527 L497.767624,527 C554.415144,474.608656 587,397.400361 587,305.903517 Z" id="Path" fill="#4285F4"></path>
            <path d="M299.75,600 C380.75,600 448.5,572.972194 498,527.175077 L401.5,452.097837 C374.5,470.116375 340.25,481.127703 299.75,481.127703 C221.5,481.127703 155.25,428.323378 131.5,357 L32,357 L32,434.329557 C81.25,532.430484 182.5,600 299.75,600 Z" id="Path" fill="#34A853"></path>
            <path d="M131,357.75 C124.785579,339.75 121.55408,320.5 121.55408,300.5 C121.55408,280.5 125.034156,261.25 131,243.25 L131,166 L32.0664137,166 C11.683112,206.5 0,252 0,300.5 C0,349 11.683112,394.5 32.0664137,435 L131,357.75 Z" id="Path" fill="#FBBC05"></path>
            <path d="M300.178857,118.872297 C344.499733,118.872297 384.063001,134.138002 415.363054,163.918641 L501,78.330587 C449.167112,29.7806385 381.308596,0 300.178857,0 C182.741057,0 81.3288841,67.569516 32,165.670443 L131.65937,243 C155.447411,171.676622 221.803524,118.872297 300.178857,118.872297 Z" id="Path" fill="#EA4335"></path>
        </g>
    </g>
</svg>