<?xml version="1.0" encoding="UTF-8"?>
<svg width="600px" height="600px" viewBox="0 0 600 600" version="1.1" xmlns="http://www.w3.org/2000/svg" xmlns:xlink="http://www.w3.org/1999/xlink">
    <title>drivers/display/assets/icon</title>
    <g id="/drivers/display/assets/icon" stroke="none" stroke-width="1" fill="none" fill-rule="evenodd" stroke-linejoin="round">
        <g id="com.google.nest/drivers/display/assets/icon" stroke="#000000">
            <path d="M47.6749358,81.0905194 L516.903577,89.5349441 C527.531571,89.7262097 536.383326,97.7411853 537.625599,108.29806 L573.096467,409.730604 C574.468035,421.386233 566.131157,431.946863 554.475528,433.318431 C554.337297,433.334698 554.198909,433.349605 554.060385,433.363152 L74.7529821,480.237577 C63.0726541,481.379868 52.6778674,472.837101 51.5355762,461.156773 C51.5173541,460.970446 51.5015952,460.783887 51.4883036,460.597144 L26.0961969,103.845751 C25.2629807,92.1393147 34.0774668,81.9739181 45.7839027,81.1407018 C46.4131896,81.0959117 47.044159,81.0791677 47.6749358,81.0905194 Z" id="Rectangle" stroke-width="12.5" stroke-linecap="round"></path>
            <path d="M47.148477,68.5873867 L47.8998543,68.5925431 L517.128495,77.0369678 C525.568373,77.1888552 533.302979,80.4472157 539.174244,85.7634544 C545.045508,91.0796931 549.053431,98.4538101 550.039942,106.837211 L550.039942,106.837211 L585.510811,408.269754 C586.599997,417.525695 583.834359,426.346857 578.482439,433.12633 C573.104472,439.938799 565.114987,444.689657 555.801138,445.748418 L555.801138,445.748418 L502.762191,450.938716 C501.857162,455.12457 500.678627,460.37081 499.224293,466.677005 C496.64911,477.843349 490.963883,485.327539 483.555788,490.692246 C475.490852,496.532616 464.95645,499.59791 453.942254,501.949584 L453.942254,501.949584 L452.869243,502.177143 C452.327612,502.291296 451.785381,502.404607 451.236858,502.518769 L451.236858,502.518769 L449.645176,502.849234 C438.772331,505.104569 377.337338,511.720128 314.766851,518.284581 L314.766851,518.284581 L308.666741,518.924212 C302.196792,519.602286 295.732197,520.278827 289.328582,520.948986 C258.525969,524.172579 229.135517,527.248315 207.358916,529.635702 C132.322503,537.86201 99.3811551,523.619438 80.4678627,515.133079 C72.4713453,511.545057 66.656228,506.786969 62.7119305,501.211789 C60.1359092,497.570639 58.30153,493.544533 57.2676254,489.114164 C53.7029129,487.280745 50.490922,484.826744 47.7891535,481.878076 C43.0212371,476.674445 39.8348283,469.939178 39.0949263,462.373421 C39.0659854,462.07749 39.0409566,461.78119 39.0198463,461.484597 L39.0198463,461.484597 L13.6277397,104.733204 C12.966068,95.4369171 16.1351016,86.752513 21.793625,80.2267628 C27.4521483,73.7010126 35.6001615,69.3339163 44.8964489,68.6722446 C45.8959045,68.6011074 46.8980324,68.5745139 47.8998543,68.5925431 Z" id="Combined-Shape" stroke-width="25"></path>
            <path d="M74.0466302,118.661648 L502.306642,123.590142 C504.802627,123.618866 506.895066,125.48404 507.209322,127.96033 L541.151169,395.416846 C541.498822,398.156298 539.559885,400.658892 536.820433,401.006545 C536.742388,401.016449 536.66412,401.02451 536.585695,401.030721 L98.7700097,435.703894 C96.0175435,435.920784 93.6094503,433.866576 93.3897866,431.11433 L69.0047858,124.057147 C68.7861752,121.30439 70.8405066,118.89562 73.5932635,118.67701 C73.7440755,118.665033 73.8953534,118.659907 74.0466302,118.661648 Z" id="Rectangle" stroke-width="12.5" stroke-linecap="round"></path>
        </g>
    </g>
</svg>