<?xml version="1.0" encoding="UTF-8"?>
<svg width="600px" height="600px" viewBox="0 0 600 600" version="1.1" xmlns="http://www.w3.org/2000/svg" xmlns:xlink="http://www.w3.org/1999/xlink">
    <title>drivers/doorbell/assets/icon</title>
    <g id="/drivers/doorbell/assets/icon" stroke="none" stroke-width="1" fill="none" fill-rule="evenodd">
        <g id="com.google.nest/drivers/display/assets/icon">
            <path d="M299.856112,13.1684562 C302.717333,13.0923095 305.117708,13.1261763 307.541428,13.2555791 C331.428593,14.5309181 353.047855,24.7591696 368.699816,40.2458943 C384.645454,56.0231946 394.375,77.2054807 394.375,99.9460296 L394.375,99.9460296 L394.375,492.218105 C394.375,515.049984 384.439264,538.287618 368.15073,555.834517 C352.585877,572.601826 331.374591,584.055944 308.108179,585.46238 C307.253305,585.562895 306.402716,585.593025 305.552463,585.577628 C300.971148,585.724351 296.47672,585.523108 292.093535,585.001334 C278.904115,584.355014 270.874485,583.612315 267.965768,582.980284 C248.363222,578.720875 231.292491,568.150542 219.180533,553.668807 C207.15683,539.292594 200,521.075537 200,501.273863 L200,501.273863 L200,98.8487234 C200,79.6232899 206.746806,61.8925892 218.142855,47.7191162 C229.65634,33.3995869 245.935434,22.7233833 264.743947,17.9047361 C268.025137,17.0641116 275.230782,15.9316582 286.385529,14.622796 C290.754899,13.8045223 295.254301,13.3113261 299.856112,13.1684562 Z" id="Combined-Shape" stroke="#000000" stroke-width="25" stroke-linejoin="round"></path>
            <path d="M310.610858,18.8216822 C353.412926,21.0887139 388.110858,55.1472659 388.110858,94.8935873 L388.110858,497.017245 C388.110858,536.763566 353.412926,577.573382 310.610858,579.840414 C267.80879,582.107445 233.110858,545.683989 233.110858,500.625863 L233.110858,88.8214744 C233.110858,47.8946249 267.80879,16.5546505 310.610858,18.8216822 Z" id="Rectangle" stroke="#000000" stroke-width="12.5" stroke-linecap="round" stroke-linejoin="round"></path>
            <path d="M312.320533,177.364556 C345.630207,178.253422 372.633033,148.908102 372.633033,111.819949 C372.633033,74.731796 345.630207,43.123891 312.320533,41.2217175 C279.010859,39.3195439 252.008033,68.6648641 252.008033,106.766325 C252.008033,144.867785 279.010859,176.47569 312.320533,177.364556 Z" id="Oval" stroke="#000000" stroke-width="12.5" stroke-linecap="round" stroke-linejoin="round"></path>
            <path d="M248.657808,106.766325 C248.657808,68.6648641 276.410607,39.3195439 310.645421,41.2217175 C344.880234,43.123891 372.633033,74.731796 372.633033,111.819949 C372.633033,148.908102 344.880234,178.253422 310.645421,177.364556 C276.410607,176.47569 248.657808,144.867785 248.657808,106.766325 Z M315.697264,82.6785714 C301.894821,82.6785714 290.949406,94.6764304 290.949406,109.205069 C290.949406,123.733708 301.894821,135.731567 315.697264,135.731567 C329.499706,135.731567 340.445121,123.733708 340.445121,109.205069 C340.445121,94.6764304 329.499706,82.6785714 315.697264,82.6785714 Z M315.697264,95.1785714 C322.326991,95.1785714 327.945121,101.336907 327.945121,109.205069 C327.945121,117.073231 322.326991,123.231567 315.697264,123.231567 C309.067537,123.231567 303.449406,117.073231 303.449406,109.205069 C303.449406,101.336907 309.067537,95.1785714 315.697264,95.1785714 Z" id="Combined-Shape" fill="#000000"></path>
            <path d="M309.907808,557.364556 C343.044893,558.253422 369.907808,528.908102 369.907808,491.819949 C369.907808,454.731796 343.044893,423.123891 309.907808,421.221717 C276.770723,419.319544 249.907808,448.664864 249.907808,486.766325 C249.907808,524.867785 276.770723,556.47569 309.907808,557.364556 Z" id="Oval" stroke="#000000" stroke-width="12.5" stroke-linecap="round" stroke-linejoin="round" transform="translate(309.907808, 489.259227) rotate(8.000000) translate(-309.907808, -489.259227) "></path>
        </g>
    </g>
</svg>